<svg xmlns="http://www.w3.org/2000/svg" width="45.703" height="65" viewBox="0 0 45.703 65">
  <g id="placeholder" transform="translate(-76)">
    <path id="Path_19" data-name="Path 19" d="M98.852,0A22.87,22.87,0,0,0,76,22.852a22.534,22.534,0,0,0,3.428,12L97.3,64.1a1.8,1.8,0,0,0,1.3.876,1.9,1.9,0,0,0,1.942-.914l17.926-29.519A22.537,22.537,0,0,0,121.7,22.852,22.87,22.87,0,0,0,98.852,0Zm0,34.277a11.426,11.426,0,1,1,11.426-11.426A11.41,11.41,0,0,1,98.852,34.277Z" fill="#d58e7c"/>
    <path id="Path_20" data-name="Path 20" d="M256,0V11.426a11.426,11.426,0,0,1,0,22.852V65a1.886,1.886,0,0,0,1.688-.936l17.926-29.519a22.536,22.536,0,0,0,3.237-11.692A22.87,22.87,0,0,0,256,0Z" transform="translate(-157.148)" fill="#c97c68"/>
  </g>
</svg>
